<svg width="112" height="53" viewBox="0 0 112 53" fill="none" xmlns="http://www.w3.org/2000/svg">
<path d="M1.752 2.042H3.696L8.16 16.37L7.752 18.986L1.752 2.042ZM12.504 1.514L12.696 3.458L8.472 16.322C8.472 16.322 8.432 16.466 8.352 16.754C8.272 17.026 8.192 17.37 8.112 17.786C8.032 18.186 7.984 18.586 7.968 18.986H7.752L7.32 16.85L12.288 1.514H12.504ZM12.504 1.538L17.544 15.674L17.016 18.986L11.688 4.13L12.504 1.538ZM22.248 2.042L17.76 16.322C17.76 16.322 17.72 16.466 17.64 16.754C17.56 17.042 17.472 17.394 17.376 17.81C17.296 18.21 17.248 18.602 17.232 18.986H17.016L16.728 16.61L20.904 2.042H22.248ZM20.448 3.626C20.576 3.146 20.536 2.778 20.328 2.522C20.12 2.266 19.856 2.138 19.536 2.138H19.32V1.898H24.048V2.138C24.048 2.138 24.016 2.138 23.952 2.138C23.888 2.138 23.856 2.138 23.856 2.138C23.488 2.138 23.088 2.258 22.656 2.498C22.224 2.722 21.92 3.098 21.744 3.626H20.448ZM4.2 3.626H2.304C2.112 3.098 1.8 2.722 1.368 2.498C0.952 2.258 0.56 2.138 0.192 2.138C0.192 2.138 0.16 2.138 0.096 2.138C0.032 2.138 0 2.138 0 2.138V1.898H5.328V2.138H5.112C4.808 2.138 4.536 2.266 4.296 2.522C4.072 2.778 4.04 3.146 4.2 3.626Z" fill="white"/>
<path d="M38.0196 4.298V18.698H36.4836V4.298H38.0196ZM27.6276 4.298V18.698H26.0916V4.298H27.6276ZM36.7236 11.234V11.954H27.3636V11.234H36.7236ZM26.1636 17.162V18.698H24.4116V18.458C24.4116 18.458 24.4596 18.458 24.5556 18.458C24.6516 18.458 24.6996 18.458 24.6996 18.458C25.0836 18.458 25.4036 18.33 25.6596 18.074C25.9316 17.818 26.0756 17.514 26.0916 17.162H26.1636ZM27.5556 17.162H27.6276C27.6276 17.514 27.7636 17.818 28.0356 18.074C28.3076 18.33 28.6356 18.458 29.0196 18.458C29.0196 18.458 29.0676 18.458 29.1636 18.458C29.2596 18.458 29.3076 18.458 29.3076 18.458V18.698H27.5556V17.162ZM27.5556 5.834V4.298H29.3076V4.538C29.3076 4.538 29.2596 4.538 29.1636 4.538C29.0676 4.538 29.0196 4.538 29.0196 4.538C28.6356 4.538 28.3076 4.666 28.0356 4.922C27.7636 5.162 27.6276 5.466 27.6276 5.834H27.5556ZM26.1636 5.834H26.0916C26.0756 5.466 25.9316 5.162 25.6596 4.922C25.4036 4.666 25.0836 4.538 24.6996 4.538C24.6996 4.538 24.6516 4.538 24.5556 4.538C24.4596 4.538 24.4116 4.538 24.4116 4.538V4.298H26.1636V5.834ZM36.5556 17.162V18.698H34.8036V18.458C34.8036 18.458 34.8516 18.458 34.9476 18.458C35.0436 18.458 35.0916 18.458 35.0916 18.458C35.4756 18.458 35.7956 18.33 36.0516 18.074C36.3236 17.818 36.4676 17.514 36.4836 17.162H36.5556ZM37.9476 17.162H38.0196C38.0356 17.514 38.1716 17.818 38.4276 18.074C38.6996 18.33 39.0276 18.458 39.4116 18.458C39.4116 18.458 39.4596 18.458 39.5556 18.458C39.6516 18.458 39.6996 18.458 39.6996 18.458V18.698H37.9476V17.162ZM37.9476 5.834V4.298H39.6996V4.538C39.6996 4.538 39.6516 4.538 39.5556 4.538C39.4596 4.538 39.4116 4.538 39.4116 4.538C39.0276 4.538 38.6996 4.666 38.4276 4.922C38.1716 5.162 38.0356 5.466 38.0196 5.834H37.9476ZM36.5556 5.834H36.4836C36.4676 5.466 36.3236 5.162 36.0516 4.922C35.7956 4.666 35.4756 4.538 35.0916 4.538C35.0916 4.538 35.0436 4.538 34.9476 4.538C34.8516 4.538 34.8036 4.538 34.8036 4.538V4.298H36.5556V5.834Z" fill="white"/>
<path d="M45.5818 4.298V18.698H44.0458V4.298H45.5818ZM52.0378 17.954L51.9898 18.698H45.5338V17.954H52.0378ZM50.9098 11.138V11.858H45.5338V11.138H50.9098ZM52.0138 4.298V5.042H45.5338V4.298H52.0138ZM53.3818 15.266L52.0618 18.698H48.4138L49.2298 17.954C50.0298 17.954 50.6698 17.842 51.1498 17.618C51.6458 17.378 52.0458 17.058 52.3498 16.658C52.6538 16.242 52.9178 15.778 53.1418 15.266H53.3818ZM50.9098 11.81V13.178H50.6458V12.866C50.6458 12.594 50.5658 12.362 50.4058 12.17C50.2458 11.962 49.9978 11.858 49.6618 11.858V11.81H50.9098ZM50.9098 9.818V11.186H49.6618V11.138C49.9978 11.138 50.2458 11.042 50.4058 10.85C50.5658 10.642 50.6458 10.402 50.6458 10.13V9.818H50.9098ZM52.0138 4.97V6.626H51.7498V6.266C51.7498 5.93 51.6378 5.642 51.4138 5.402C51.2058 5.162 50.9178 5.042 50.5498 5.042V4.97H52.0138ZM52.0138 3.914V4.538L49.2778 4.298C49.7738 4.298 50.3018 4.258 50.8618 4.178C51.4218 4.082 51.8058 3.994 52.0138 3.914ZM44.0938 17.162L44.4058 18.698H42.3178V18.458C42.3178 18.458 42.3738 18.458 42.4858 18.458C42.5978 18.458 42.6538 18.458 42.6538 18.458C43.0538 18.458 43.3818 18.33 43.6378 18.074C43.8938 17.818 44.0298 17.514 44.0458 17.162H44.0938ZM44.0938 5.81H44.0458C44.0298 5.442 43.8938 5.138 43.6378 4.898C43.3818 4.658 43.0538 4.538 42.6538 4.538C42.6538 4.538 42.5978 4.538 42.4858 4.538C42.3738 4.538 42.3178 4.538 42.3178 4.538V4.298H44.4058L44.0938 5.81Z" fill="white"/>
<path d="M58.113 4.298H61.209C61.961 4.298 62.633 4.386 63.225 4.562C63.833 4.738 64.345 4.994 64.761 5.33C65.193 5.666 65.521 6.074 65.745 6.554C65.969 7.034 66.081 7.578 66.081 8.186C66.081 8.858 65.921 9.482 65.601 10.058C65.281 10.634 64.833 11.106 64.257 11.474C63.697 11.842 63.057 12.066 62.337 12.146C62.609 12.258 62.921 12.506 63.273 12.89C63.641 13.274 63.953 13.65 64.209 14.018C64.209 14.018 64.313 14.162 64.521 14.45C64.729 14.722 64.993 15.066 65.313 15.482C65.649 15.882 65.977 16.266 66.297 16.634C66.633 17.002 66.937 17.322 67.209 17.594C67.497 17.866 67.801 18.082 68.121 18.242C68.457 18.386 68.841 18.458 69.273 18.458V18.698H68.529C67.649 18.698 66.921 18.586 66.345 18.362C65.785 18.138 65.329 17.866 64.977 17.546C64.625 17.21 64.321 16.89 64.065 16.586C64.001 16.506 63.849 16.306 63.609 15.986C63.385 15.65 63.137 15.29 62.865 14.906C62.593 14.522 62.345 14.178 62.121 13.874C61.897 13.554 61.761 13.362 61.713 13.298C61.393 12.882 61.025 12.514 60.609 12.194C60.193 11.858 59.753 11.69 59.289 11.69V11.45C59.289 11.45 59.417 11.458 59.673 11.474C59.929 11.474 60.257 11.466 60.657 11.45C61.105 11.434 61.553 11.402 62.001 11.354C62.449 11.29 62.865 11.114 63.249 10.826C63.649 10.538 63.961 10.058 64.185 9.386C64.249 9.21 64.297 9.002 64.329 8.762C64.361 8.522 64.369 8.274 64.353 8.018C64.337 7.57 64.249 7.17 64.089 6.818C63.945 6.466 63.729 6.162 63.441 5.906C63.169 5.65 62.841 5.45 62.457 5.306C62.073 5.162 61.641 5.082 61.161 5.066C60.409 5.034 59.753 5.026 59.193 5.042C58.633 5.058 58.353 5.058 58.353 5.042C58.353 5.026 58.329 4.962 58.281 4.85C58.249 4.722 58.209 4.602 58.161 4.49C58.129 4.362 58.113 4.298 58.113 4.298ZM58.401 4.298V18.698H56.865V4.298H58.401ZM56.937 17.162L57.225 18.698H55.185V18.458C55.185 18.458 55.241 18.458 55.353 18.458C55.465 18.458 55.521 18.458 55.521 18.458C55.905 18.458 56.225 18.33 56.481 18.074C56.737 17.818 56.873 17.514 56.889 17.162H56.937ZM56.937 5.81H56.889C56.873 5.442 56.737 5.138 56.481 4.898C56.225 4.658 55.905 4.538 55.521 4.538C55.521 4.538 55.465 4.538 55.353 4.538C55.241 4.538 55.185 4.538 55.185 4.538V4.298H57.225L56.937 5.81ZM58.329 17.162H58.401C58.417 17.514 58.553 17.818 58.809 18.074C59.065 18.33 59.385 18.458 59.769 18.458C59.769 18.458 59.817 18.458 59.913 18.458C60.025 18.458 60.081 18.458 60.081 18.458L60.105 18.698H58.041L58.329 17.162Z" fill="white"/>
<path d="M73.4959 4.298V18.698H71.9599V4.298H73.4959ZM79.9519 17.954L79.9039 18.698H73.4479V17.954H79.9519ZM78.8239 11.138V11.858H73.4479V11.138H78.8239ZM79.9279 4.298V5.042H73.4479V4.298H79.9279ZM81.2959 15.266L79.9759 18.698H76.3279L77.1439 17.954C77.9439 17.954 78.5839 17.842 79.0639 17.618C79.5599 17.378 79.9599 17.058 80.2639 16.658C80.5679 16.242 80.8319 15.778 81.0559 15.266H81.2959ZM78.8239 11.81V13.178H78.5599V12.866C78.5599 12.594 78.4799 12.362 78.3199 12.17C78.1599 11.962 77.9119 11.858 77.5759 11.858V11.81H78.8239ZM78.8239 9.818V11.186H77.5759V11.138C77.9119 11.138 78.1599 11.042 78.3199 10.85C78.4799 10.642 78.5599 10.402 78.5599 10.13V9.818H78.8239ZM79.9279 4.97V6.626H79.6639V6.266C79.6639 5.93 79.5519 5.642 79.3279 5.402C79.1199 5.162 78.8319 5.042 78.4639 5.042V4.97H79.9279ZM79.9279 3.914V4.538L77.1919 4.298C77.6879 4.298 78.2159 4.258 78.7759 4.178C79.3359 4.082 79.7199 3.994 79.9279 3.914ZM72.0079 17.162L72.3199 18.698H70.2319V18.458C70.2319 18.458 70.2879 18.458 70.3999 18.458C70.5119 18.458 70.5679 18.458 70.5679 18.458C70.9679 18.458 71.2959 18.33 71.5519 18.074C71.8079 17.818 71.9439 17.514 71.9599 17.162H72.0079ZM72.0079 5.81H71.9599C71.9439 5.442 71.8079 5.138 71.5519 4.898C71.2959 4.658 70.9679 4.538 70.5679 4.538C70.5679 4.538 70.5119 4.538 70.3999 4.538C70.2879 4.538 70.2319 4.538 70.2319 4.538V4.298H72.3199L72.0079 5.81Z" fill="white"/>
<path d="M83.3574 0.53C83.4694 0.29 83.6534 0.130001 83.9094 0.0500007C84.1654 -0.0300001 84.4294 -0.0140003 84.7014 0.0980001C84.9894 0.194 85.2054 0.418 85.3494 0.77C85.5574 1.266 85.6374 1.738 85.5894 2.186C85.5414 2.634 85.3974 3.042 85.1574 3.41C84.9334 3.762 84.6454 4.042 84.2934 4.25C83.9414 4.458 83.5574 4.57 83.1414 4.586L83.0934 4.37C83.6054 4.194 83.9414 3.954 84.1014 3.65C84.2614 3.346 84.3094 3.042 84.2454 2.738C84.1814 2.434 84.0774 2.194 83.9334 2.018C83.8374 1.89 83.7254 1.754 83.5974 1.61C83.4694 1.466 83.3734 1.306 83.3094 1.13C83.2454 0.938 83.2614 0.738 83.3574 0.53Z" fill="white"/>
<path d="M92.2701 3.962C92.7181 3.962 93.1101 3.978 93.4461 4.01C93.7821 4.042 94.0701 4.082 94.3101 4.13C94.5661 4.162 94.7821 4.21 94.9581 4.274C95.1501 4.322 95.3181 4.37 95.4621 4.418L95.4861 6.794H95.1981C95.1981 6.138 94.9741 5.626 94.5261 5.258C94.0781 4.874 93.3821 4.682 92.4381 4.682C91.6381 4.682 90.9501 4.906 90.3741 5.354C89.8141 5.786 89.5421 6.322 89.5581 6.962C89.5581 7.17 89.5821 7.386 89.6301 7.61C89.6941 7.818 89.7901 8.026 89.9181 8.234C90.0621 8.442 90.2541 8.65 90.4941 8.858L95.3421 12.602C95.7101 12.906 95.9821 13.298 96.1581 13.778C96.3341 14.242 96.4301 14.706 96.4461 15.17C96.4621 15.874 96.2781 16.522 95.8941 17.114C95.5101 17.706 94.9901 18.178 94.3341 18.53C93.6941 18.866 92.9821 19.034 92.1981 19.034C91.7341 19.034 91.2301 18.994 90.6861 18.914C90.1581 18.834 89.6621 18.714 89.1981 18.554C88.7341 18.378 88.3501 18.162 88.0461 17.906C87.9981 17.682 87.9741 17.402 87.9741 17.066C87.9741 16.714 87.9981 16.346 88.0461 15.962C88.1101 15.578 88.1901 15.234 88.2861 14.93H88.5741C88.5101 15.65 88.6141 16.266 88.8861 16.778C89.1581 17.29 89.5581 17.682 90.0861 17.954C90.6141 18.21 91.2301 18.33 91.9341 18.314C92.9261 18.282 93.7021 18.034 94.2621 17.57C94.8381 17.09 95.1261 16.458 95.1261 15.674C95.1261 15.29 95.0541 14.946 94.9101 14.642C94.7821 14.322 94.5661 14.026 94.2621 13.754L89.4621 10.058C89.0141 9.674 88.7101 9.25 88.5501 8.786C88.3901 8.322 88.3101 7.882 88.3101 7.466C88.3101 6.81 88.4861 6.218 88.8381 5.69C89.1901 5.162 89.6621 4.746 90.2541 4.442C90.8621 4.122 91.5341 3.962 92.2701 3.962ZM95.4381 4.178L95.4621 4.61H93.7581V4.178H95.4381Z" fill="white"/>
<path d="M38.712 22.546V33.698H37.672V22.546H38.712ZM42.824 22.482V22.962H33.56V22.482H42.824ZM42.824 22.914V24.21L42.664 24.194V23.922C42.664 23.6553 42.568 23.4313 42.376 23.25C42.1947 23.0687 41.976 22.9727 41.72 22.962V22.914H42.824ZM42.824 22.194V22.658L40.872 22.482C41.1067 22.482 41.352 22.466 41.608 22.434C41.8747 22.402 42.12 22.3647 42.344 22.322C42.568 22.2793 42.728 22.2367 42.824 22.194ZM37.72 32.53V33.698H36.44V33.538C36.44 33.538 36.472 33.538 36.536 33.538C36.6107 33.538 36.648 33.538 36.648 33.538C36.9253 33.538 37.16 33.442 37.352 33.25C37.5547 33.0473 37.6613 32.8073 37.672 32.53H37.72ZM38.664 32.53H38.712C38.7227 32.8073 38.824 33.0473 39.016 33.25C39.2187 33.442 39.4587 33.538 39.736 33.538C39.736 33.538 39.768 33.538 39.832 33.538C39.9067 33.538 39.944 33.538 39.944 33.538V33.698H38.664V32.53ZM34.664 22.914V22.962C34.3973 22.9727 34.1733 23.0687 33.992 23.25C33.8107 23.4313 33.72 23.6553 33.72 23.922V24.194L33.56 24.21V22.914H34.664ZM33.56 22.194C33.6667 22.2367 33.8267 22.2793 34.04 22.322C34.264 22.3647 34.5093 22.402 34.776 22.434C35.0427 22.466 35.288 22.482 35.512 22.482L33.56 22.658V22.194Z" fill="white"/>
<path d="M53.0826 24.098V33.698H52.0586V24.098H53.0826ZM46.1546 24.098V33.698H45.1306V24.098H46.1546ZM52.2186 28.722V29.202H45.9786V28.722H52.2186ZM45.1786 32.674V33.698H44.0106V33.538C44.0106 33.538 44.0426 33.538 44.1066 33.538C44.1706 33.538 44.2026 33.538 44.2026 33.538C44.4586 33.538 44.672 33.4527 44.8426 33.282C45.024 33.1113 45.12 32.9087 45.1306 32.674H45.1786ZM46.1066 32.674H46.1546C46.1546 32.9087 46.2453 33.1113 46.4266 33.282C46.608 33.4527 46.8266 33.538 47.0826 33.538C47.0826 33.538 47.1146 33.538 47.1786 33.538C47.2426 33.538 47.2746 33.538 47.2746 33.538V33.698H46.1066V32.674ZM46.1066 25.122V24.098H47.2746V24.258C47.2746 24.258 47.2426 24.258 47.1786 24.258C47.1146 24.258 47.0826 24.258 47.0826 24.258C46.8266 24.258 46.608 24.3433 46.4266 24.514C46.2453 24.674 46.1546 24.8767 46.1546 25.122H46.1066ZM45.1786 25.122H45.1306C45.12 24.8767 45.024 24.674 44.8426 24.514C44.672 24.3433 44.4586 24.258 44.2026 24.258C44.2026 24.258 44.1706 24.258 44.1066 24.258C44.0426 24.258 44.0106 24.258 44.0106 24.258V24.098H45.1786V25.122ZM52.1066 32.674V33.698H50.9386V33.538C50.9386 33.538 50.9706 33.538 51.0346 33.538C51.0986 33.538 51.1306 33.538 51.1306 33.538C51.3866 33.538 51.6 33.4527 51.7706 33.282C51.952 33.1113 52.048 32.9087 52.0586 32.674H52.1066ZM53.0346 32.674H53.0826C53.0933 32.9087 53.184 33.1113 53.3546 33.282C53.536 33.4527 53.7546 33.538 54.0106 33.538C54.0106 33.538 54.0426 33.538 54.1066 33.538C54.1706 33.538 54.2026 33.538 54.2026 33.538V33.698H53.0346V32.674ZM53.0346 25.122V24.098H54.2026V24.258C54.2026 24.258 54.1706 24.258 54.1066 24.258C54.0426 24.258 54.0106 24.258 54.0106 24.258C53.7546 24.258 53.536 24.3433 53.3546 24.514C53.184 24.674 53.0933 24.8767 53.0826 25.122H53.0346ZM52.1066 25.122H52.0586C52.048 24.8767 51.952 24.674 51.7706 24.514C51.6 24.3433 51.3866 24.258 51.1306 24.258C51.1306 24.258 51.0986 24.258 51.0346 24.258C50.9706 24.258 50.9386 24.258 50.9386 24.258V24.098H52.1066V25.122Z" fill="white"/>
<path d="M58.1241 24.098V33.698H57.1001V24.098H58.1241ZM62.4281 33.202L62.3961 33.698H58.0921V33.202H62.4281ZM61.6761 28.658V29.138H58.0921V28.658H61.6761ZM62.4121 24.098V24.594H58.0921V24.098H62.4121ZM63.3241 31.41L62.4441 33.698H60.0121L60.5561 33.202C61.0895 33.202 61.5161 33.1273 61.8361 32.978C62.1668 32.818 62.4335 32.6047 62.6361 32.338C62.8388 32.0607 63.0148 31.7513 63.1641 31.41H63.3241ZM61.6761 29.106V30.018H61.5001V29.81C61.5001 29.6287 61.4468 29.474 61.3401 29.346C61.2335 29.2073 61.0681 29.138 60.8441 29.138V29.106H61.6761ZM61.6761 27.778V28.69H60.8441V28.658C61.0681 28.658 61.2335 28.594 61.3401 28.466C61.4468 28.3273 61.5001 28.1673 61.5001 27.986V27.778H61.6761ZM62.4121 24.546V25.65H62.2361V25.41C62.2361 25.186 62.1615 24.994 62.0121 24.834C61.8735 24.674 61.6815 24.594 61.4361 24.594V24.546H62.4121ZM62.4121 23.842V24.258L60.5881 24.098C60.9188 24.098 61.2708 24.0713 61.6441 24.018C62.0175 23.954 62.2735 23.8953 62.4121 23.842ZM57.1321 32.674L57.3401 33.698H55.9481V33.538C55.9481 33.538 55.9855 33.538 56.0601 33.538C56.1348 33.538 56.1721 33.538 56.1721 33.538C56.4388 33.538 56.6575 33.4527 56.8281 33.282C56.9988 33.1113 57.0895 32.9087 57.1001 32.674H57.1321ZM57.1321 25.106H57.1001C57.0895 24.8607 56.9988 24.658 56.8281 24.498C56.6575 24.338 56.4388 24.258 56.1721 24.258C56.1721 24.258 56.1348 24.258 56.0601 24.258C55.9855 24.258 55.9481 24.258 55.9481 24.258V24.098H57.3401L57.1321 25.106Z" fill="white"/>
<path d="M37.224 45.65L36.96 48.938C36.544 49.578 36 50.13 35.328 50.594C34.656 51.058 33.896 51.418 33.048 51.674C32.2 51.914 31.304 52.034 30.36 52.034C28.744 52.018 27.336 51.706 26.136 51.098C24.952 50.49 24.04 49.626 23.4 48.506C22.76 47.386 22.44 46.05 22.44 44.498C22.44 42.93 22.76 41.586 23.4 40.466C24.04 39.346 24.952 38.482 26.136 37.874C27.336 37.266 28.744 36.962 30.36 36.962C31.352 36.962 32.352 37.09 33.36 37.346C34.368 37.602 35.24 37.962 35.976 38.426L36.504 41.81H36.288C35.936 40.338 35.224 39.282 34.152 38.642C33.096 38.002 31.824 37.682 30.336 37.682C29.072 37.682 27.976 37.962 27.048 38.522C26.136 39.066 25.424 39.85 24.912 40.874C24.416 41.882 24.168 43.09 24.168 44.498C24.168 45.874 24.416 47.074 24.912 48.098C25.424 49.106 26.144 49.89 27.072 50.45C28 50.994 29.096 51.274 30.36 51.29C31.56 51.29 32.64 51.098 33.6 50.714C34.576 50.314 35.368 49.698 35.976 48.866C36.584 48.034 36.928 46.962 37.008 45.65H37.224Z" fill="white"/>
<path d="M42.7459 37.298V51.698H41.2099V37.298H42.7459ZM49.2019 50.954L49.1539 51.698H42.6979V50.954H49.2019ZM50.5459 48.266L49.2259 51.698H45.5779L46.3939 50.954C47.1939 50.954 47.8339 50.842 48.3139 50.618C48.8099 50.378 49.2099 50.058 49.5139 49.658C49.8179 49.242 50.0819 48.778 50.3059 48.266H50.5459ZM41.2579 50.162L41.5699 51.698H39.4819V51.458C39.4819 51.458 39.5379 51.458 39.6499 51.458C39.7619 51.458 39.8179 51.458 39.8179 51.458C40.2179 51.458 40.5459 51.33 40.8019 51.074C41.0579 50.818 41.1939 50.514 41.2099 50.162H41.2579ZM42.6739 38.834V37.298H44.4499V37.538C44.4499 37.538 44.4019 37.538 44.3059 37.538C44.2099 37.538 44.1619 37.538 44.1619 37.538C43.7779 37.538 43.4419 37.666 43.1539 37.922C42.8819 38.162 42.7459 38.466 42.7459 38.834H42.6739ZM41.2579 38.834H41.2099C41.1939 38.466 41.0499 38.162 40.7779 37.922C40.5059 37.666 40.1699 37.538 39.7699 37.538C39.7699 37.538 39.7219 37.538 39.6259 37.538C39.5299 37.538 39.4819 37.538 39.4819 37.538V37.298H41.2579V38.834Z" fill="white"/>
<path d="M55.0271 37.298V51.698H53.4911V37.298H55.0271ZM61.4831 50.954L61.4351 51.698H54.9791V50.954H61.4831ZM60.3551 44.138V44.858H54.9791V44.138H60.3551ZM61.4591 37.298V38.042H54.9791V37.298H61.4591ZM62.8271 48.266L61.5071 51.698H57.8591L58.6751 50.954C59.4751 50.954 60.1151 50.842 60.5951 50.618C61.0911 50.378 61.4911 50.058 61.7951 49.658C62.0991 49.242 62.3631 48.778 62.5871 48.266H62.8271ZM60.3551 44.81V46.178H60.0911V45.866C60.0911 45.594 60.0111 45.362 59.8511 45.17C59.6911 44.962 59.4431 44.858 59.1071 44.858V44.81H60.3551ZM60.3551 42.818V44.186H59.1071V44.138C59.4431 44.138 59.6911 44.042 59.8511 43.85C60.0111 43.642 60.0911 43.402 60.0911 43.13V42.818H60.3551ZM61.4591 37.97V39.626H61.1951V39.266C61.1951 38.93 61.0831 38.642 60.8591 38.402C60.6511 38.162 60.3631 38.042 59.9951 38.042V37.97H61.4591ZM61.4591 36.914V37.538L58.7231 37.298C59.2191 37.298 59.7471 37.258 60.3071 37.178C60.8671 37.082 61.2511 36.994 61.4591 36.914ZM53.5391 50.162L53.8511 51.698H51.7631V51.458C51.7631 51.458 51.8191 51.458 51.9311 51.458C52.0431 51.458 52.0991 51.458 52.0991 51.458C52.4991 51.458 52.8271 51.33 53.0831 51.074C53.3391 50.818 53.4751 50.514 53.4911 50.162H53.5391ZM53.5391 38.81H53.4911C53.4751 38.442 53.3391 38.138 53.0831 37.898C52.8271 37.658 52.4991 37.538 52.0991 37.538C52.0991 37.538 52.0431 37.538 51.9311 37.538C51.8191 37.538 51.7631 37.538 51.7631 37.538V37.298H53.8511L53.5391 38.81Z" fill="white"/>
<path d="M67.5583 37.298H70.6543C71.4063 37.298 72.0783 37.386 72.6703 37.562C73.2783 37.738 73.7903 37.994 74.2063 38.33C74.6383 38.666 74.9663 39.074 75.1903 39.554C75.4143 40.034 75.5263 40.578 75.5263 41.186C75.5263 41.858 75.3663 42.482 75.0463 43.058C74.7263 43.634 74.2783 44.106 73.7023 44.474C73.1423 44.842 72.5023 45.066 71.7823 45.146C72.0543 45.258 72.3663 45.506 72.7183 45.89C73.0863 46.274 73.3983 46.65 73.6543 47.018C73.6543 47.018 73.7583 47.162 73.9663 47.45C74.1743 47.722 74.4383 48.066 74.7583 48.482C75.0943 48.882 75.4223 49.266 75.7423 49.634C76.0783 50.002 76.3823 50.322 76.6543 50.594C76.9423 50.866 77.2463 51.082 77.5663 51.242C77.9023 51.386 78.2863 51.458 78.7183 51.458V51.698H77.9743C77.0943 51.698 76.3663 51.586 75.7903 51.362C75.2303 51.138 74.7743 50.866 74.4223 50.546C74.0703 50.21 73.7663 49.89 73.5103 49.586C73.4463 49.506 73.2943 49.306 73.0543 48.986C72.8303 48.65 72.5823 48.29 72.3103 47.906C72.0383 47.522 71.7903 47.178 71.5663 46.874C71.3423 46.554 71.2063 46.362 71.1583 46.298C70.8383 45.882 70.4703 45.514 70.0543 45.194C69.6383 44.858 69.1983 44.69 68.7343 44.69V44.45C68.7343 44.45 68.8623 44.458 69.1183 44.474C69.3743 44.474 69.7023 44.466 70.1023 44.45C70.5503 44.434 70.9983 44.402 71.4463 44.354C71.8943 44.29 72.3103 44.114 72.6943 43.826C73.0943 43.538 73.4063 43.058 73.6303 42.386C73.6943 42.21 73.7423 42.002 73.7743 41.762C73.8063 41.522 73.8143 41.274 73.7983 41.018C73.7823 40.57 73.6943 40.17 73.5343 39.818C73.3903 39.466 73.1743 39.162 72.8863 38.906C72.6143 38.65 72.2863 38.45 71.9023 38.306C71.5183 38.162 71.0863 38.082 70.6063 38.066C69.8543 38.034 69.1983 38.026 68.6383 38.042C68.0783 38.058 67.7983 38.058 67.7983 38.042C67.7983 38.026 67.7743 37.962 67.7263 37.85C67.6943 37.722 67.6543 37.602 67.6063 37.49C67.5743 37.362 67.5583 37.298 67.5583 37.298ZM67.8463 37.298V51.698H66.3103V37.298H67.8463ZM66.3823 50.162L66.6703 51.698H64.6303V51.458C64.6303 51.458 64.6863 51.458 64.7983 51.458C64.9103 51.458 64.9663 51.458 64.9663 51.458C65.3503 51.458 65.6703 51.33 65.9263 51.074C66.1823 50.818 66.3183 50.514 66.3343 50.162H66.3823ZM66.3823 38.81H66.3343C66.3183 38.442 66.1823 38.138 65.9263 37.898C65.6703 37.658 65.3503 37.538 64.9663 37.538C64.9663 37.538 64.9103 37.538 64.7983 37.538C64.6863 37.538 64.6303 37.538 64.6303 37.538V37.298H66.6703L66.3823 38.81ZM67.7743 50.162H67.8463C67.8623 50.514 67.9983 50.818 68.2543 51.074C68.5103 51.33 68.8303 51.458 69.2143 51.458C69.2143 51.458 69.2623 51.458 69.3583 51.458C69.4703 51.458 69.5263 51.458 69.5263 51.458L69.5503 51.698H67.4863L67.7743 50.162Z" fill="white"/>
<path d="M83.1572 37.298V51.698H81.6452V37.298H83.1572ZM81.7172 50.162V51.698H79.6772V51.458C79.6772 51.458 79.7332 51.458 79.8452 51.458C79.9572 51.458 80.0132 51.458 80.0132 51.458C80.4612 51.458 80.8372 51.33 81.1412 51.074C81.4612 50.818 81.6292 50.514 81.6452 50.162H81.7172ZM83.0852 50.162H83.1572C83.1732 50.514 83.3332 50.818 83.6372 51.074C83.9572 51.33 84.3412 51.458 84.7892 51.458C84.7892 51.458 84.8372 51.458 84.9332 51.458C85.0452 51.458 85.1012 51.458 85.1012 51.458L85.1252 51.698H83.0852V50.162ZM83.0852 38.834V37.298H85.1252L85.1012 37.538C85.1012 37.538 85.0452 37.538 84.9332 37.538C84.8372 37.538 84.7892 37.538 84.7892 37.538C84.3412 37.538 83.9572 37.666 83.6372 37.922C83.3332 38.162 83.1732 38.466 83.1572 38.834H83.0852ZM81.7172 38.834H81.6452C81.6292 38.466 81.4612 38.162 81.1412 37.922C80.8372 37.666 80.4612 37.538 80.0132 37.538C79.9972 37.538 79.9332 37.538 79.8212 37.538C79.7252 37.538 79.6772 37.538 79.6772 37.538V37.298H81.7172V38.834Z" fill="white"/>
<path d="M102.052 45.65L101.788 48.938C101.372 49.578 100.828 50.13 100.156 50.594C99.4841 51.058 98.7241 51.418 97.8761 51.674C97.0281 51.914 96.1321 52.034 95.1881 52.034C93.5721 52.018 92.1641 51.706 90.9641 51.098C89.7801 50.49 88.8681 49.626 88.2281 48.506C87.5881 47.386 87.2681 46.05 87.2681 44.498C87.2681 42.93 87.5881 41.586 88.2281 40.466C88.8681 39.346 89.7801 38.482 90.9641 37.874C92.1641 37.266 93.5721 36.962 95.1881 36.962C96.1801 36.962 97.1801 37.09 98.1881 37.346C99.1961 37.602 100.068 37.962 100.804 38.426L101.332 41.81H101.116C100.764 40.338 100.052 39.282 98.9801 38.642C97.9241 38.002 96.6521 37.682 95.1641 37.682C93.9001 37.682 92.8041 37.962 91.8761 38.522C90.9641 39.066 90.2521 39.85 89.7401 40.874C89.2441 41.882 88.9961 43.09 88.9961 44.498C88.9961 45.874 89.2441 47.074 89.7401 48.098C90.2521 49.106 90.9721 49.89 91.9001 50.45C92.8281 50.994 93.9241 51.274 95.1881 51.29C96.3881 51.29 97.4681 51.098 98.4281 50.714C99.4041 50.314 100.196 49.698 100.804 48.866C101.412 48.034 101.756 46.962 101.836 45.65H102.052Z" fill="white"/>
<path d="M103.47 36.698C103.838 36.026 104.326 35.506 104.934 35.138C105.542 34.754 106.238 34.562 107.022 34.562C108.478 34.562 109.622 34.922 110.454 35.642C111.286 36.362 111.702 37.362 111.702 38.642C111.702 39.298 111.574 39.874 111.318 40.37C111.078 40.866 110.766 41.322 110.382 41.738C110.014 42.154 109.622 42.546 109.206 42.914C108.806 43.282 108.446 43.658 108.126 44.042C107.806 44.426 107.582 44.842 107.454 45.29C107.39 45.546 107.334 45.794 107.286 46.034C107.254 46.274 107.262 46.514 107.31 46.754C107.374 46.994 107.502 47.242 107.694 47.498L107.55 47.618C107.134 47.234 106.854 46.85 106.71 46.466C106.566 46.082 106.494 45.698 106.494 45.314C106.494 44.866 106.606 44.442 106.83 44.042C107.07 43.642 107.358 43.25 107.694 42.866C108.03 42.466 108.366 42.058 108.702 41.642C109.038 41.226 109.318 40.77 109.542 40.274C109.782 39.778 109.902 39.234 109.902 38.642C109.902 37.586 109.646 36.762 109.134 36.17C108.622 35.578 107.918 35.282 107.022 35.282C106.062 35.282 105.302 35.61 104.742 36.266C104.198 36.922 103.934 37.826 103.95 38.978H103.71L103.47 36.698ZM107.31 51.794C107.006 51.794 106.75 51.69 106.542 51.482C106.334 51.274 106.23 51.018 106.23 50.714C106.23 50.41 106.334 50.154 106.542 49.946C106.75 49.738 107.006 49.634 107.31 49.634C107.614 49.634 107.87 49.738 108.078 49.946C108.286 50.154 108.39 50.41 108.39 50.714C108.39 51.018 108.286 51.274 108.078 51.482C107.87 51.69 107.614 51.794 107.31 51.794Z" fill="white"/>
</svg>
